<svg xmlns="http://www.w3.org/2000/svg" viewBox="0 0 50 50"><path style="fill:#ffdd00;" d="M22.908 48.979c-.515-.109-.728-.18-1.067-.357-.747-.39-.873-1.083-.354-1.946a2.08 2.08 0 0 0 .135-.243c0-.011-.342-.01-.759.003-1.008.032-1.613.114-4.29.583-2.702.475-4.437.524-6.059.172-.608-.132-1.708-.498-1.937-.646-.038-.024-.001-.143.16-.512.198-.455.561-1.414.561-1.483 0-.017-.143-.106-.317-.197-1.083-.565-1.94-1.334-2.571-2.306-.218-.335-.414-.697-.414-.765 0-.02.126-.11.279-.2.47-.272 1.045-.671 1.404-.973.397-.332.669-.675 1.005-1.267.442-.777.788-1.179 1.236-1.432.656-.373 1.5-.371 2.022.004l.189.135-.05-.217c-.029-.12-.082-.4-.12-.621-.065-.378-.07-1.007-.09-10.174l-.021-9.77-.085-.425c-.243-1.212-.592-2.067-1.4-3.434l-.262-.441.218-.199.218-.198.527.263c1.927.966 3.827 1.462 5.833 1.524.817.025 1.702-.014 1.665-.074-.064-.104-.584-.289-.935-.333-.789-.097-1.56-.376-1.853-.67-.14-.14-.24-.39-.2-.496.021-.053-.301-.204-1.095-.511-.214-.083-.211-.081-.164-.14.088-.112.237-.568.275-.843.076-.548-.07-1.215-.42-1.92-.195-.396-.62-1.106-.661-1.106-.017 0-.183.077-.37.173a2.864 2.864 0 0 1-.378.172c-.036 0-.746-1.1-.798-1.238-.017-.044.073-.11.362-.264l.385-.206-.251-.473c-.138-.261-.242-.497-.232-.524.02-.05 1.258-.75 1.328-.75.02 0 .058.036.081.08.024.045.155.251.29.459l.248.377.358-.17c.197-.094.368-.17.38-.17.011 0 .095.121.187.27.091.147.183.262.205.254.021-.008.583-.183 1.248-.389.665-.206 1.223-.386 1.239-.401.016-.015.065-.398.108-.85.044-.453.09-.851.105-.886.02-.048.182.099.697.634.369.383.689.7.71.705.022.005.74-.221 1.594-.504l1.555-.513.012-.216.011-.216h1.033V.93H25.883v2.188h1.037v.48l1.523.419 1.523.418.115-.13c.406-.458 1.229-1.34 1.24-1.328.007.007.08.465.161 1.019.082.553.155 1.012.164 1.02.008.008.531.165 1.163.348.91.263 1.154.322 1.18.282l.193-.314c.088-.145.182-.271.208-.282.027-.01.213.07.414.18l.366.197.107-.15c.06-.082.186-.264.28-.405.096-.14.195-.255.222-.255.052-.001 1.276.603 1.276.63 0 .009-.13.22-.289.468l-.288.451.375.246c.206.135.398.258.426.274.039.022-.05.186-.353.65-.223.34-.416.62-.43.62-.012 0-.133-.079-.267-.175l-.245-.174-.161.203c-.248.312-.602.86-.774 1.202-.25.494-.341.8-.364 1.211-.024.44.038.697.239.996.074.11.134.203.134.206 0 .004-.276.144-.614.312l-.614.305v.172c0 .154-.018.189-.183.347-.272.262-.804.516-1.693.809l-.789.26.383.028c.21.016.675.018 1.034.004 2.245-.086 4.229-.626 5.812-1.58.191-.116.356-.21.365-.21.033 0 .485.278.505.31.011.018-.1.272-.248.566-.689 1.375-1.053 2.49-1.212 3.71-.053.407-.06 1.567-.059 9.906.001 6.1-.013 9.653-.038 10.033-.167 2.474-1.133 3.715-3.308 4.246-.525.128-1.138.22-2.431.367-1.59.18-2.161.275-2.937.485-.992.269-1.866.73-2.55 1.344l-.219.197.3-.072c.614-.147 1.15-.2 2.008-.198 1.028.002 1.708.078 3.702.415.808.136 1.7.281 1.984.323.658.096 1.654.2 1.679.175.01-.01-.131-.583-.315-1.272a35.16 35.16 0 0 1-.322-1.263c.005-.005.183.006.394.023 1.239.103 2.31-.013 2.906-.313l.23-.117-.282-.196c-.417-.29-.909-.803-1.061-1.106-.147-.291-.207-.635-.158-.897.08-.43.42-.93.793-1.167.525-.333 1.333-.317 1.96.039.448.254.794.655 1.236 1.432.336.592.608.935 1.005 1.268.359.3.934.7 1.404.973.153.089.279.179.279.2 0 .067-.196.429-.413.764-.627.968-1.49 1.742-2.572 2.306-.174.091-.317.18-.317.198 0 .066.356 1.01.558 1.477.157.366.198.495.162.518-.098.063-.866.354-1.207.457-.863.261-1.616.376-2.661.407-1.184.034-2.321-.073-4.127-.39-2.565-.45-3.291-.551-4.2-.585-.535-.02-.628-.015-.608.03.203.469.234.576.25.866.023.413-.051.639-.3.91-.57.624-1.642.833-4.24.829-.894-.002-1.043-.011-1.421-.091zm2.783-.29c.454-.022.98-.066 1.171-.097.79-.131 1.343-.396 1.546-.741.153-.26.145-.608-.024-1.008-.195-.464-.146-.436-.69-.38-.257.027-.467.051-.466.053l.05.213c.055.234.07.246.39.305.334.062.562.189.646.36.069.14.069.148 0 .287-.263.535-1.333.78-3.16.723-1.868-.058-2.516-.138-2.982-.368-.664-.326-.482-.759.415-.991l.282-.073.012-.214.011-.214-.126-.022a9.528 9.528 0 0 0-.403-.052l-.275-.031-.192.29c-.331.503-.435.92-.296 1.189.177.34.792.623 1.672.766.298.049 1.445.05 2.419.004zm-11.364-1.71c.714-.075 1.226-.153 2.995-.459 2.442-.421 3.5-.521 4.642-.438.35.026.696.048.769.05l.132.005.436-1.34c.24-.737.422-1.354.405-1.37-.05-.052-.671-.184-1.172-.25-.37-.05-.661-.058-1.354-.041-1.032.025-1.433.074-3.641.445-2.388.402-3.67.54-4.479.484-.747-.052-2.303-.271-2.303-.325 0-.014.125-.066.278-.115 1.12-.356 2.172-.898 2.524-1.298.116-.132.167-.166.2-.134.055.055-.079.264-.34.532-.271.277-.565.487-1.007.718l-.392.205.376.025c.207.014.576.025.819.025h.443l.277-1.045c.153-.576.278-1.06.278-1.075 0-.016-.334-.03-.74-.03-1.092 0-1.68-.094-2.236-.359-.263-.125-.672-.417-.672-.48 0-.017.194-.157.432-.312.516-.336 1.043-.841 1.199-1.15.06-.12.113-.299.125-.422.016-.182.001-.253-.098-.472-.387-.853-1.211-1.1-2.096-.631-.328.174-.653.523-.941 1.01-.51.864-.601.997-.865 1.275-.416.438-1.038.916-1.68 1.29l-.183.105.063.121c.307.602 1.236 1.616 1.875 2.048.42.284.995.598 1.03.563.068-.068-.007-.137-.406-.373-.941-.556-1.66-1.226-2.187-2.037l-.148-.229.29-.102c.496-.175.92-.479 1.327-.95.207-.24.52-.706.988-1.474.322-.526.65-.912.935-1.103.128-.086.248-.156.267-.156.018 0-.063.147-.18.326-.425.652-.612 1.186-.582 1.662.034.545.425 1.138.964 1.462.54.323 1.216.466 2.338.494.438.01.796.034.796.051 0 .077-.419.524-.698.745-.711.562-1.695.936-3.035 1.152-.136.022-.146.033-.203.242a21.418 21.418 0 0 1-.638 1.904c-.106.256-.201.494-.212.528-.015.05.047.09.281.18.887.34 1.594.486 2.893.598.315.028 1.546-.016 2.111-.075zm-2.61-.172a11.197 11.197 0 0 1-1.363-.271c-.32-.091-1.018-.344-1.018-.37 0-.01.202-.567.448-1.239l.447-1.222.208.092c.353.156.923.323 1.389.408.368.067.604.081 1.367.084 1.216.004 1.939-.08 4.292-.497 2.497-.442 2.941-.495 4.096-.494.789.001.953.013 1.305.088.222.048.417.1.434.117.017.016-.126.56-.317 1.207-.19.647-.347 1.181-.347 1.186 0 .005-.367.004-.816-.003-1.395-.021-2.255.07-5.019.536-1.985.334-2.444.384-3.705.399-.612.007-1.243-.002-1.401-.022zm1.83-.667c-.027-.408-.027-.407.265-.407.169 0 .17 0 .17-.135v-.136l-.25.026-.25.025v-.423l.23-.017a.948.948 0 0 0 .252-.038c.012-.012.01-.067-.004-.123-.028-.112-.101-.122-.55-.075-.231.024-.238.028-.22.124.011.055.04.424.066.82l.046.72h.269l-.024-.361zm1.228.23a30.052 30.052 0 0 0-.18-1.61c-.01-.008-.07-.008-.135.002l-.116.017.086.794.087.821c.002.021.223 0 .258-.024zm1.112-.16a.63.63 0 0 0 .476-.483c.074-.305-.017-.709-.204-.909-.168-.18-.282-.21-.675-.185-.199.013-.37.032-.38.042-.016.016.158 1.342.204 1.547.017.078.035.083.2.064.1-.012.27-.046.379-.076zm-.344-.235c-.046-.163-.147-1.015-.127-1.067.03-.077.263-.075.413.003.15.077.262.323.263.573 0 .303-.135.482-.408.537-.097.02-.125.01-.141-.045zm1.852.008c.177-.03.329-.063.337-.072.009-.009.004-.062-.01-.12-.026-.1-.033-.103-.223-.079-.374.048-.344.06-.381-.166-.04-.243-.029-.255.266-.292l.204-.025-.024-.122a1.6 1.6 0 0 0-.027-.128 2.215 2.215 0 0 0-.228.033c-.126.022-.238.024-.255.006a.646.646 0 0 1-.056-.212l-.025-.178.225-.026c.123-.015.248-.04.275-.058.062-.038.023-.231-.046-.23-.074 0-.726.108-.74.122-.013.013.205 1.463.234 1.557.019.061.08.06.474-.01zm1.873-.29l.353-.047-.022-.12a1.138 1.138 0 0 0-.03-.127 1.97 1.97 0 0 0-.265.032 1.367 1.367 0 0 1-.273.027 1.422 1.422 0 0 1-.04-.23l-.027-.218.187-.026c.301-.04.31-.045.29-.173-.018-.125-.031-.128-.325-.08-.201.033-.185.05-.235-.253-.023-.138-.014-.144.312-.185.2-.026.202-.027.202-.16 0-.125-.007-.132-.106-.113-.058.012-.244.04-.414.064l-.31.043.106.736c.058.405.107.776.108.825.001.066.019.084.069.07.037-.011.226-.04.42-.066zm1.335-.257a21.76 21.76 0 0 1-.077-.678c-.067-.64-.068-.636.184-.637.139 0 .144-.005.144-.135 0-.074-.013-.134-.029-.134a28.1 28.1 0 0 0-.883.098c-.15.02-.163.031-.163.135 0 .11.003.112.208.112h.207l.022.144c.011.08.04.343.062.586.058.626.054.614.21.614.124 0 .132-.007.115-.105zm-10.387-5.164c-.172-.369-.182-.705-.028-1.034.105-.225.63-.814.813-.911.084-.046.108-.04.223.045.207.156.424.25.705.307.145.03.269.07.275.09.023.069-1.737 1.781-1.83 1.781-.015 0-.087-.125-.158-.278zm28.205 6.727a9.505 9.505 0 0 0 2.256-.544c.234-.09.296-.13.281-.179-.01-.035-.106-.272-.212-.528a21.9 21.9 0 0 1-.64-1.904c-.058-.209-.068-.221-.203-.243-1.335-.215-2.324-.59-3.027-1.146-.284-.226-.704-.673-.704-.75 0-.018.358-.04.796-.051 1.122-.028 1.799-.171 2.338-.495.539-.323.93-.916.964-1.462.03-.475-.157-1.01-.582-1.66-.117-.18-.198-.328-.18-.328.019 0 .14.072.272.16.288.192.603.565.93 1.099.467.767.781 1.234.988 1.474.407.472.831.776 1.327.95l.29.103-.148.228c-.527.811-1.246 1.481-2.187 2.037-.399.236-.474.305-.406.373.036.036.615-.282 1.03-.564.381-.26 1.035-.869 1.327-1.237a7.81 7.81 0 0 0 .403-.578c.19-.3.207-.344.15-.378a43.55 43.55 0 0 1-.528-.34c-.562-.364-.918-.651-1.277-1.03-.264-.277-.354-.41-.865-1.274-.308-.521-.624-.851-.994-1.036-.867-.434-1.665-.178-2.043.656-.1.22-.114.291-.098.473.012.123.065.302.125.422.156.309.683.814 1.2 1.15.237.154.431.295.431.312 0 .063-.41.355-.672.48-.556.265-1.144.36-2.235.36-.407 0-.74.012-.74.028s.124.5.277 1.075l.277 1.046h.443c.243 0 .612-.011.819-.025l.376-.025-.392-.205c-.442-.232-.736-.441-1.007-.719-.261-.267-.395-.476-.34-.531.033-.033.084.002.2.134.352.4 1.405.941 2.524 1.298.153.048.278.1.278.115 0 .053-1.556.273-2.303.325-.808.056-2.091-.083-4.479-.484-2.208-.372-2.609-.42-3.641-.446-.693-.016-.985-.008-1.354.041-.507.067-1.121.199-1.174.251-.018.018.08.376.219.795l.426 1.3c.097.295.19.56.209.59.027.042.092.043.392.002.209-.028.717-.048 1.205-.046.952.003 1.76.082 3.033.299 3.249.552 3.577.6 4.53.67.536.04 1.57.021 2.115-.038zM36 46.82c-.578-.05-1.676-.2-2.726-.376-2.92-.487-3.71-.572-5.115-.55a17.79 17.79 0 0 1-.816.002c0-.005-.156-.539-.347-1.186-.191-.647-.334-1.19-.317-1.207.017-.017.212-.07.434-.117.352-.076.516-.087 1.305-.088 1.155-.002 1.599.052 4.096.494 2.353.417 3.076.5 4.292.497.763-.002.999-.017 1.367-.084a6.957 6.957 0 0 0 1.389-.408l.208-.092.447 1.222c.246.672.448 1.23.448 1.24 0 .025-.7.278-1.018.369-.385.11-.977.223-1.41.27-.337.037-1.862.047-2.237.014zm.71-.607v-.134h-.576v-.461h.5v-.113c0-.113-.003-.114-.24-.125l-.24-.012v-.416l.278.01.278.008v-.273h-.795l-.025.236c-.013.13-.024.5-.024.825v.59h.844zm-1.19.078c0-.09-.17-.71-.211-.775-.05-.076-.047-.084.04-.106.122-.03.21-.206.21-.42 0-.141-.02-.187-.103-.253-.118-.093-.17-.109-.522-.15-.309-.036-.269-.122-.354.762-.034.349-.07.68-.081.736-.017.089-.005.105.1.128.066.015.13.017.14.006.012-.011.038-.164.06-.34a3.16 3.16 0 0 1 .048-.33c.006-.006.055-.001.107.012.115.03.155.11.222.449.034.171.07.263.111.274.087.023.233.028.233.007zm-.652-1.086c0-.058.01-.167.023-.242.021-.128.03-.136.144-.12.234.032.32.203.195.383-.045.063-.098.085-.211.085-.14 0-.151-.008-.151-.106zm-1.102.783c.14-.058.358-.29.416-.441.138-.363.11-.792-.067-1.002a.735.735 0 0 0-.592-.222c-.313.042-.534.322-.62.784a.765.765 0 0 0 .02.437c.069.24.18.364.396.44.189.068.293.069.447.004zm-.377-.232c-.15-.065-.21-.203-.21-.478 0-.279.154-.612.32-.691.164-.078.334-.017.42.149.153.291.007.888-.249 1.02-.125.065-.134.065-.281 0zm-.975-.11c.144-.097.241-.321.204-.469a.451.451 0 0 0-.114-.176l-.093-.087.116-.07c.13-.079.19-.205.19-.393 0-.126-.09-.242-.249-.32-.092-.045-.557-.137-.58-.115-.022.022-.323 1.576-.308 1.59.02.021.503.12.604.123a.487.487 0 0 0 .23-.084zm-.517-.212c-.012-.02-.002-.141.023-.271.047-.257.041-.254.309-.152.131.05.176.2.1.336-.045.08-.088.1-.233.11-.098.006-.187-.004-.199-.023zm.13-.766c.002-.08.063-.355.085-.377.008-.008.079.002.156.024.162.045.219.172.148.327-.036.078-.07.093-.216.093-.14 0-.173-.013-.172-.067zm-.733.556l-.194-.865-.124-.55-.154.012-.155.012-.351.774-.352.774.134.015c.13.015.137.008.213-.173.073-.176.085-.186.191-.165.063.012.18.023.26.023.179 0 .252.067.285.265.023.135.04.154.148.168.067.008.132.018.146.021.014.003-.008-.136-.047-.31zm-.64-.402c-.069-.009-.124-.036-.123-.06.001-.026.06-.183.13-.35l.129-.305.046.228.076.371c.035.158.045.154-.258.116zm-.816.45v-.115H29.3v-1.42h-.268V45.388h.806zm9.248-5.192c-.652-.598-1.305-1.263-1.29-1.31.007-.021.131-.062.276-.09.28-.058.498-.152.705-.308.115-.086.139-.09.223-.045.183.097.708.686.813.91.154.33.144.666-.028 1.035-.071.153-.143.278-.158.278-.016 0-.26-.211-.54-.47zm-13.12 5.285c.261-.034.48-.067.488-.074.007-.007-.007-.076-.033-.153-.034-.106-.061-.134-.109-.115a5.89 5.89 0 0 1-1.061.23c-.382.032-.871-.03-1.229-.159a17.37 17.37 0 0 0-.329-.115c-.044-.014-.073.025-.109.143-.06.2-.042.214.302.247.138.013.268.03.29.038.118.04 1.378.011 1.79-.042zm-.37-.53c.369-.08.676-.188.66-.232a68.156 68.156 0 0 1-.18-.54 5.098 5.098 0 0 0-.193-.531c-.033-.037-.428.547-.62.917-.07.136-.136.247-.147.247a.817.817 0 0 1-.123-.185 8.38 8.38 0 0 0-.692-.966c-.1-.115-.149-.149-.163-.111a20.741 20.741 0 0 0-.366 1.132c0 .044.44.223.7.285.204.048.875.039 1.124-.016zm.134-1.986c.62-.78 1.53-1.38 2.63-1.734.754-.242 1.542-.378 3.033-.526 1.616-.16 2.272-.268 2.917-.479 1.751-.574 2.55-1.776 2.71-4.08.021-.315.035-4.257.034-9.742-.002-9.86-.009-9.499.179-10.423.191-.945.608-2.116 1.01-2.841.064-.116.117-.22.117-.231 0-.011-.213.086-.475.215-1.42.701-3.609 1.166-5.8 1.23-2.842.085-5.34-.598-6.995-1.911l-.237-.188-.416.284c-1.479 1.014-3.134 1.582-5.284 1.815-.786.085-2.357.084-3.225-.002-1.713-.17-3.407-.568-4.76-1.117-.045-.018.01.094.158.319.44.669.824 1.52 1.001 2.216.228.894.21.047.235 10.71.025 10.743.006 9.95.257 10.904.338 1.29.976 2.085 2.095 2.61.903.422 1.595.557 4.163.807 1.774.173 2.699.38 3.617.81.924.433 1.811 1.246 2.275 2.083l.123.223.195-.319a7.6 7.6 0 0 1 .443-.633zm-.747.206a1.632 1.632 0 0 0-.666-.697l-.16-.082v-.239c0-.131.026-2.13.057-4.443.03-2.312.056-4.605.057-5.096v-.893H25.608l.023.355c.012.196.082 2.429.156 4.962.073 2.534.142 4.768.153 4.964l.019.357-.166.071c-.334.143-.559.41-.651.771l-.053.207zm-3.375-2.083a15.082 15.082 0 0 1-.744-.284c-.01-.01.28-2.058.647-4.55l.665-4.533H23.398l-.02.125c-.01.069-.232 2.237-.493 4.818-.294 2.914-.489 4.693-.514 4.692a14.927 14.927 0 0 1-.764-.268zm5.948.145c-.012-.069-.228-2.19-.482-4.713a724.468 724.468 0 0 0-.478-4.693l-.019-.106h.613c.338 0 .614.007.614.015 0 .019 1.297 8.877 1.317 8.993.013.074-.057.108-.745.355-.417.15-.768.273-.78.273-.01 0-.029-.056-.04-.124zm-9.437-.852a10.301 10.301 0 0 1-.734-.102c-.008-.009.54-1.938 1.219-4.287l1.233-4.27h1.288l-.027.105-.992 4.367-.966 4.261-.15.006c-.083.003-.475-.033-.87-.08zm12.703 0c-.09-.358-1.943-8.569-1.943-8.609 0-.04.133-.05.633-.05.348 0 .633.006.633.015s.553 1.929 1.229 4.268c.676 2.338 1.22 4.261 1.208 4.272-.02.021-1.452.192-1.636.195-.076.002-.107-.02-.124-.09zm-15.547-.43c-1.279-.274-1.99-1.251-2.315-3.181-.055-.323-.067-.757-.08-2.717l-.015-2.332H18.39l-.223.662-1.211 3.6c-1.157 3.439-1.363 4.032-1.396 4.028a13.35 13.35 0 0 1-.287-.06zm18.851-.217c-.052-.152-.617-1.823-1.254-3.713l-1.307-3.868-.147-.432h5.523v2.121c0 1.89-.009 2.176-.074 2.62-.317 2.151-1.129 3.286-2.524 3.527-.122.021-.123.02-.217-.255zM15.068 30.53a2.515 2.515 0 0 1-.359-.116.278.278 0 0 0-.172-.021c-.05.012-.098.01-.108-.006-.026-.043.23-.639.281-.656.025-.008.054.021.065.065.046.173.624.337 1.08.304.428-.03.651-.21.478-.384-.056-.055-.163-.085-.398-.111l-.637-.072c-.355-.04-.581-.138-.697-.301-.087-.122-.164-.41-.14-.527l.037-.18c.03-.138.23-.362.401-.449.442-.223 1.12-.202 1.679.053.118.053.237.082.297.07.056-.01.101-.008.101.005 0 .055-.31.637-.34.637-.017 0-.05-.04-.072-.09-.084-.184-.663-.36-1.039-.317-.375.044-.569.207-.438.368.057.07.13.089.489.122.912.084 1.208.19 1.361.491a.913.913 0 0 1 .025.668c-.076.182-.313.361-.594.448-.325.101-.914.1-1.3 0zm4.198-.024c-.182-.182-.139-.526.077-.624.282-.128.545.013.579.312.018.162.009.19-.097.296a.395.395 0 0 1-.56.016zm7.386.04c-.402-.109-.574-.276-.651-.633-.023-.106-.041-.546-.041-.977 0-.744-.004-.788-.077-.833-.042-.027-.077-.07-.077-.097 0-.036.12-.048.48-.048.396 0 .48.01.48.056 0 .031-.036.076-.08.099-.077.041-.079.066-.067.838.014.895.031.957.294 1.07.21.092.646.085.814-.011.242-.14.267-.246.267-1.1 0-.718-.003-.76-.076-.798-.042-.023-.077-.067-.077-.098 0-.046.08-.056.441-.056.36 0 .442.01.442.056 0 .03-.03.072-.067.093-.06.034-.07.135-.087.99-.018.91-.023.96-.107 1.095-.11.177-.273.28-.565.356-.288.075-.963.074-1.246-.002zm3.166.024a3.88 3.88 0 0 1-.38-.112c-.126-.044-.267-.07-.317-.057-.054.013-.09.005-.09-.02 0-.087.25-.657.288-.657.022 0 .056.039.077.086.06.135.437.266.829.289.476.027.764-.08.764-.287 0-.134-.171-.19-.731-.24-.612-.055-.829-.117-.988-.28a.78.78 0 0 1-.128-.854c.089-.194.163-.26.44-.386.42-.192 1.002-.17 1.554.057.17.07.303.102.371.089.059-.011.1-.005.091.014a13.96 13.96 0 0 1-.328.628c-.009.01-.059-.037-.111-.103-.255-.325-1.18-.42-1.436-.146-.2.213-.034.299.7.361.303.026.563.071.696.12.359.135.556.445.508.8-.038.272-.172.44-.47.586-.242.12-.282.127-.72.136a4.192 4.192 0 0 1-.62-.024zm-11.767-.05c0-.026.035-.07.077-.096.073-.046.077-.09.077-1.007v-.96h-.384c-.333 0-.394.01-.46.077-.043.042-.095.077-.116.077-.023 0-.038-.154-.038-.384 0-.303.01-.384.053-.384.03 0 .063.026.076.058.019.049.185.057 1.176.057.99 0 1.157-.008 1.176-.057.012-.032.046-.058.076-.058.042 0 .053.081.053.384 0 .23-.015.384-.038.384-.021 0-.073-.035-.115-.077-.066-.066-.128-.077-.442-.077h-.365v.975c0 .831.009.978.058.997a.095.095 0 0 1 .058.08c0 .05-.073.06-.461.06-.345 0-.46-.013-.46-.049zm3.417 0c0-.026.035-.07.077-.096.074-.046.077-.09.077-1.16 0-1.072-.003-1.115-.077-1.161-.042-.027-.077-.072-.077-.1 0-.073 2.062-.044 2.265.031.358.133.521.397.492.799-.038.53-.39.697-1.48.698l-.47.001v.422c0 .38.007.427.076.47.042.026.077.07.077.096 0 .037-.12.049-.48.049s-.48-.012-.48-.049zm1.987-1.559c.16-.085.158-.347-.003-.434-.048-.026-.315-.053-.63-.063l-.548-.017v.597l.548-.019c.312-.01.585-.038.633-.064zm1.084 1.549c0-.032.026-.069.058-.081.05-.019.057-.182.057-1.146 0-.952-.008-1.13-.057-1.171-.032-.027-.058-.072-.058-.101 0-.042.095-.053.461-.053.486 0 .546.025.384.164-.073.063-.077.113-.077 1.141 0 1.024.004 1.079.077 1.152.042.042.077.094.077.115 0 .024-.18.039-.461.039-.388 0-.46-.01-.46-.06zm8.102-.143c0-.026.051-.074.114-.105.137-.07.969-1.111.943-1.18-.044-.113-.724-.976-.847-1.074-.234-.187-.197-.203.46-.203.48 0 .596.01.596.052 0 .03-.04.08-.087.11l-.086.058.144.207c.28.398.247.379.376.225.062-.074.16-.201.218-.284l.105-.149-.085-.057c-.048-.031-.086-.08-.086-.11 0-.042.112-.053.576-.053.45 0 .576.011.576.051 0 .028-.05.075-.112.106-.062.03-.297.285-.523.567-.316.396-.403.528-.377.578.018.035.211.3.43.59.305.403.428.536.528.572.072.026.13.07.13.097 0 .039-.136.05-.614.05-.634 0-.696-.017-.535-.147.077-.063.076-.067-.158-.38l-.236-.317-.227.283c-.23.29-.27.393-.168.432.031.012.057.046.057.076 0 .043-.106.053-.556.053-.42 0-.557-.012-.556-.048zm-19.734-8.316c0-5.21.011-4.921-.235-5.917a9.642 9.642 0 0 0-.934-2.341c-.12-.217-.212-.4-.205-.406.007-.007.177.061.377.152a14.22 14.22 0 0 0 3.646 1.065c.482.075.71.086 1.708.087 1.202.001 1.514-.025 2.476-.212 1.411-.273 2.888-.805 4.395-1.582l.69-.356.615.312c1.731.875 3.341 1.37 5.203 1.598.528.065 2.237.065 2.765 0a15.95 15.95 0 0 0 3.987-1.01c.262-.105.482-.184.49-.176.006.007-.084.228-.201.49-.458 1.022-.804 2.26-.896 3.201-.026.27-.04 2.096-.04 5.135v4.715H29.74l-.299-.777c-.31-.807-.358-.95-.321-.95.012 0 .191.11.398.243.207.134.448.29.537.345l.161.101-.11-.258-1.072-2.502a138 138 0 0 1-.953-2.25c.005-.005 1.07-.718 2.366-1.587l2.358-1.579h-5.984l-.993-2.342c-.547-1.289-1.001-2.335-1.01-2.327-.01.01-.452 1.06-.984 2.334l-.969 2.316-3 .02-3 .019 2.377 1.631c1.308.898 2.378 1.648 2.378 1.668 0 .034-2.003 4.763-2.083 4.915-.038.072-.035.072.053.015.246-.16 1-.577 1.016-.562.01.01-.1.357-.242.772l-.26.755h-7.198zm8.139 4.725c0-.104.51-1.993.548-2.03.08-.078.847-.589.862-.574.007.008-.086.604-.209 1.324l-.222 1.31h-.49c-.269 0-.49-.013-.49-.03zm1.804-.056c0-.114.303-2.955.316-2.967.037-.034.774-.361.786-.35.008.009-.03.75-.083 1.647-.054.897-.098 1.66-.098 1.694 0 .054-.06.062-.46.062-.452 0-.46-.002-.46-.086zm1.605-.269l.078-1.929.064-1.574.258-.011c.242-.01.259-.006.275.077.01.048.054.865.099 1.815.044.95.087 1.784.096 1.853l.016.124h-.901zm1.62.293c0-.035-.044-.797-.098-1.694a44.44 44.44 0 0 1-.083-1.646c.012-.012.75.315.786.349.014.012.316 2.853.316 2.967 0 .085-.008.086-.46.086-.4 0-.461-.008-.461-.062zm1.566-1.232c-.12-.711-.211-1.302-.202-1.311.018-.018.901.571.901.602 0 .009.112.446.25.973.137.526.25.973.25.993 0 .022-.201.037-.49.037h-.49l-.22-1.294zm-4.818-2.541a1.23 1.23 0 0 1-.259-.261c-.71-.964-.676-3.568.056-4.401.165-.188.301-.256.518-.256.221 0 .412.098.63.322.125.128.184.164.218.136.026-.022.055-.025.065-.01.014.026-.074.454-.184.89-.031.126-.065.077-.074-.107a.495.495 0 0 0-.124-.3c-.48-.597-.985-.325-1.227.662-.096.392-.097 1.391-.001 1.798.114.488.263.774.474.914.211.139.434.074.68-.2.179-.196.253-.367.253-.58 0-.23.049-.152.19.31.088.284.134.385.158.346.02-.03.035-1.31.036-2.979 0-2.549-.007-2.932-.057-2.982a.227.227 0 0 1-.058-.14c0-.08.006-.08.784-.07.77.012.786.014.884.106.054.052.14.181.19.288.16.345.196.575.196 1.27 0 .67-.039.94-.173 1.206-.064.128-.064.137.021.307.157.314.222.729.222 1.423 0 .692-.049.99-.225 1.363-.054.113-.158.26-.232.324l-.134.118h-1.525l-.024-.096c-.013-.053-.037-.096-.052-.095-.015 0-.106.123-.2.273-.235.37-.369.468-.668.484-.185.01-.261-.003-.358-.064zm2.88-1.434c.164-.218.2-.392.196-.95-.002-.438-.016-.552-.087-.734-.135-.345-.161-.358-.758-.373l-.515-.012v2.194H25.61zm-.014-2.944c.113-.113.161-.352.16-.803 0-.277-.019-.464-.06-.58-.11-.305-.117-.309-.718-.309h-.532v1.766h.538c.481 0 .545-.008.612-.074zm1.361 4.342c-.181-.132-.412-.512-.517-.85-.159-.512-.198-.89-.18-1.71.016-.662.032-.817.116-1.135.152-.574.396-1.002.645-1.13.146-.076.434-.072.606.01.077.036.224.15.326.255.143.146.194.178.219.137.08-.132.072.032-.025.476-.1.46-.169.588-.169.318 0-.183-.194-.465-.388-.564-.522-.266-.941.312-1.029 1.416-.081 1.028.15 1.953.554 2.218.309.203.855-.226.894-.702.01-.113.03-.213.045-.222.029-.018.27.733.27.84 0 .072-.063.083-.086.014-.009-.026-.081.056-.161.183-.28.441-.436.555-.763.555-.167 0-.236-.02-.357-.109zM14.658 43.639c.76-.08 1.32-.163 3.07-.458 1.994-.336 2.674-.412 3.702-.414.86-.002 1.394.05 2.015.2.169.04.313.067.32.06.043-.043-.739-.557-1.164-.766-1.068-.525-2.004-.734-4.396-.98-1.756-.18-2.546-.319-3.283-.578-.915-.322-1.673-.89-2.112-1.584l-.109-.172-.08.236c-.155.458-.56.928-1.169 1.357l-.28.197.23.117c.595.3 1.667.416 2.906.314.211-.018.389-.028.394-.023.006.005-.136.562-.316 1.238-.312 1.171-.346 1.315-.313 1.315.008 0 .271-.026.585-.06zm2.802-30.726c-.09-.1-.09-.293 0-.42.106-.146.658-.408 1.11-.525 3.167-.82 10.378-.776 12.614.078.505.193.722.386.763.677l.021.15.206-.103c.25-.125.504-.359.504-.464 0-.31-.75-.62-2.111-.872-1.067-.196-3.586-.311-6.124-.278-2.671.034-3.437.08-4.952.298-1.9.273-2.899.578-2.899.885 0 .12.2.297.538.474.36.188.428.209.33.1zm5.369-.328c.36-.178.69-.352.731-.386.072-.059.002-.062-.998-.04-2.175.046-3.897.198-4.058.358-.026.026-.014.052.038.08.235.126 1.947.292 3.154.306l.478.006zm5.722.285c1.466-.085 2.349-.208 2.312-.322-.052-.158-1.218-.289-3.29-.37a29.602 29.602 0 0 0-1.4-.03l-.305.012.422.22c.232.12.594.288.804.373.433.175.445.176 1.457.117zm-12.334-.355c-.016-.222.088-.378.38-.566 1.628-1.052 8.352-1.592 12.895-1.034 1.667.205 2.844.573 3.303 1.032.197.197.292.428.25.612-.022.097-.02.097.037.024a.834.834 0 0 0 .103-.223c.038-.127.033-.169-.038-.316-.346-.711-2.49-1.206-6.074-1.402-2.48-.136-5.642.025-7.985.406-2.067.337-3.105.787-3.02 1.31.018.112.116.32.151.32a.752.752 0 0 0-.002-.163zm.249-1.08a.599.599 0 0 1 .218-.062c.144 0 .154-.064.018-.111-.292-.102-.532.02-.532.27v.123l.086-.079c.048-.043.142-.107.21-.14zm-.758-.465c.09-.317.17-.586.177-.598.007-.012.16.051.34.14.441.215.868.303 1.335.275.975-.058 1.7-.684 2.046-1.766l.083-.26.17.214c.357.452 1.009.867 1.595 1.017.361.093.937.1 1.263.017.968-.247 1.658-1.078 1.989-2.395l.127-.508.066.403c.206 1.27.844 2.14 1.804 2.462.488.164 1.122.122 1.637-.108.365-.163.795-.473 1.134-.817.18-.183.332-.326.339-.318.006.008.033.115.06.238.026.122.118.363.203.534.275.549.752.931 1.335 1.07.475.113 1.186.028 1.81-.216.292-.115.29-.115.322-.008l.18.574.152.488.249-.093a4.07 4.07 0 0 0 .278-.113c.017-.01-.023-.126-.088-.258-.115-.23-.12-.26-.118-.722 0-.442.011-.51.127-.845.069-.201.219-.555.333-.787.209-.424.848-1.478.971-1.603.063-.063.084-.054.41.163l.344.229.125-.22c.07-.121.126-.229.125-.24 0-.01-.18-.122-.402-.249-.221-.127-.402-.248-.402-.269 0-.02.137-.245.306-.498l.307-.46-.24-.124a1.35 1.35 0 0 0-.303-.125c-.038-.001-.13.103-.227.257l-.292.459-.128.2-.29-.172a3.76 3.76 0 0 0-.327-.18c-.02-.006-.088.079-.151.187l-.115.196.364.22.363.22-.118.236a40.9 40.9 0 0 1-.8 1.497c-.016.017-.206-.057-.423-.166-.216-.109-.406-.183-.422-.166-.016.017-.073.11-.128.206l-.1.174.403.2c.306.153.397.215.374.255-.08.142-.495.57-.711.734-.133.1-.37.244-.53.32-.274.132-.306.139-.69.139-.37 0-.42-.009-.611-.11-.414-.217-.725-.65-.874-1.214-.112-.423-.074-1.502.062-1.758.018-.033.113.053.287.259.143.17.268.308.278.308.017 0-.005-.461-.047-.999l-.02-.25.673-.285c.37-.157.662-.295.65-.306a7.979 7.979 0 0 0-.68-.157l-.659-.137-.01-.63-.011-.63-.33.498c-.182.273-.342.51-.357.527-.015.016-.31-.04-.657-.125a7.476 7.476 0 0 0-.656-.145c-.015.005.162.241.394.524.248.302.413.536.401.568-.011.03-.185.267-.386.528-.2.261-.365.484-.365.494 0 .01.2-.058.446-.152.245-.094.453-.164.462-.155.03.03-.227.775-.36 1.044-.58 1.155-1.56 1.819-2.473 1.672-.982-.159-1.572-1.02-1.741-2.546l-.025-.22h.658v-.538h-.691V4.424h1.037v-.96h-.998V1.43h-1.267v2.034h-.971l.024.26c.014.142.025.358.025.48v.22h.91l.025.547c.013.301.025.672.025.826v.278h-.614v.537h.652v.151c0 .23-.073.716-.158 1.059-.213.848-.727 1.44-1.382 1.59-.91.21-1.98-.344-2.662-1.377-.272-.413-.648-1.099-.629-1.147.008-.018.228.008.49.057.262.05.48.085.485.08a7.654 7.654 0 0 0-.279-.521l-.287-.512.323-.487c.487-.731.468-.7.41-.68-.135.048-1.191.328-1.234.328-.027 0-.238-.228-.47-.506l-.423-.506-.01.67-.011.669-.661.189c-.364.103-.678.197-.698.208-.02.011.256.118.614.237l.651.217.01.659c.006.362.024.66.039.66s.168-.152.34-.337c.172-.185.324-.325.339-.311.014.013.035.368.047.787.024.829-.004 1.038-.2 1.464-.133.293-.479.639-.781.783a1.707 1.707 0 0 1-1.186.075 2.062 2.062 0 0 1-.89-.573c-.182-.213-.376-.555-.324-.573.02-.007.152-.08.294-.162.141-.083.292-.161.333-.175.07-.022.063-.044-.105-.285l-.181-.262-.385.205-.385.205-.498-.83a50.885 50.885 0 0 1-.51-.859c-.006-.016.028-.042.077-.057.049-.016.23-.105.404-.199l.316-.17-.134-.266a2.06 2.06 0 0 0-.147-.266c-.007 0-.18.078-.383.173a5.983 5.983 0 0 1-.389.173c-.01 0-.1-.16-.197-.354a7.57 7.57 0 0 0-.234-.44l-.057-.087-.217.111c-.407.208-.398.174-.153.564.118.187.244.399.28.47.075.148.083.137-.229.3a5.707 5.707 0 0 0-.337.191l-.146.092.16.23.161.228.12-.072c.32-.191.605-.35.63-.35.042 0 .708 1.197.983 1.766.515 1.068.654 1.825.443 2.41-.025.07-.04.133-.032.14.06.054.403.202.42.182a7.48 7.48 0 0 0 .188-.601zm17.627.397c-.091-.26-.302-.37-.506-.261-.1.054-.093.114.014.114.091 0 .418.187.468.267.052.084.067.005.024-.12zm-13.755-.681l.218-.024-.102-.069a.714.714 0 0 0-.238-.09c-.116-.019-.153-.005-.253.095-.065.064-.117.152-.117.195v.078l.137-.08c.075-.045.235-.092.355-.105zm10.912-.04a.707.707 0 0 0-.31-.252c-.09-.029-.29.072-.344.171-.038.07-.029.074.143.054.114-.012.24 0 .336.036.21.077.22.076.175-.009zm-9.502-.142c.085.011.189.032.23.046.05.016.025-.024-.068-.114-.214-.205-.463-.184-.584.05l-.057.11.162-.057a.767.767 0 0 1 .317-.035zm8.041.044c0-.01-.062-.088-.139-.173-.112-.125-.164-.154-.276-.154-.121 0-.314.116-.314.19 0 .012.108.022.24.023.15 0 .283.025.355.066.13.073.134.074.134.048zm-4.889-.178a12.16 12.16 0 0 1 1.242-.02l.749.023-.096-.075c-.158-.124-.657-.372-.88-.438a1.824 1.824 0 0 0-.976.014c-.25.086-.57.288-.736.465l-.115.123.16-.024c.087-.014.38-.044.652-.068zm-3.944-.316c.094-.152.1-.258.025-.403-.059-.114-.382-.428-.44-.428-.04 0-.12.329-.12.499 0 .176.066.302.201.384.176.107.242.097.334-.052zm9.432 0c.083-.071.107-.13.121-.297.02-.236-.046-.534-.118-.534-.071 0-.4.347-.446.472-.056.148-.052.18.036.324.094.155.253.168.407.036zm-4.704-.828c.136-.136.15-.36.039-.598-.149-.319-.163-.322-.328-.082-.198.288-.23.548-.085.693.129.129.236.125.374-.013zM15.73 7.342c.028 0 .104-.054.17-.119.164-.164.166-.401.005-.582-.099-.11-.134-.125-.31-.125-.175 0-.211.015-.31.125-.218.244-.11.601.214.706.042.014.1.018.128.01a.453.453 0 0 1 .103-.015zm18.33-.135c.159-.081.232-.204.232-.387a.398.398 0 0 0-.289-.4c-.369-.122-.68.263-.498.615.107.207.346.28.556.172zm-17.252-.495c.11-.11.13-.158.13-.304 0-.248-.162-.41-.409-.41-.146 0-.194.02-.304.13-.107.107-.13.16-.13.292 0 .132.023.185.13.292.107.107.16.13.292.13.132 0 .184-.023.291-.13zm16.364-.034c.117-.058.198-.22.198-.394 0-.209-.202-.401-.422-.401-.22 0-.422.192-.422.4 0 .239.107.38.345.457.068.022.176 0 .301-.062zM21.554 5.193a.425.425 0 0 0-.198-.696c-.361-.108-.66.275-.483.619a.417.417 0 0 0 .681.077zm6.963-.094c.107-.107.13-.16.13-.291 0-.132-.023-.185-.13-.292-.107-.107-.16-.13-.292-.13-.132 0-.185.023-.292.13-.107.107-.13.16-.13.292 0 .132.023.184.13.291.107.107.16.131.292.131.132 0 .185-.024.292-.13zm-5.812-.206c.217-.217.15-.548-.139-.686-.156-.075-.28-.05-.441.085a.39.39 0 0 0-.101.49c.127.267.47.324.681.111zm4.607-.046c.325-.255.162-.769-.243-.769a.42.42 0 0 0-.355.67c.123.181.43.232.598.1z"/></svg>